<svg xmlns="http://www.w3.org/2000/svg" xmlns:xlink="http://www.w3.org/1999/xlink" width="810" zoomAndPan="magnify" viewBox="0 0 607.5 367.499994" height="490" preserveAspectRatio="xMidYMid meet" version="1.0"><defs><clipPath id="85ecf48a5c"><path d="M 349 225 L 365 225 L 365 247.1875 L 349 247.1875 Z M 349 225 " clip-rule="nonzero"/></clipPath><clipPath id="e04b6bed6e"><path d="M 8.425781 119.859375 L 288 119.859375 L 288 193 L 8.425781 193 Z M 8.425781 119.859375 " clip-rule="nonzero"/></clipPath></defs><path fill="#15151e" d="M 277.441406 220.359375 C 277.441406 217.234375 272.859375 217.234375 272.859375 220.359375 C 272.859375 223.484375 277.441406 223.464844 277.441406 220.359375 Z M 273.246094 241.054688 L 276.957031 241.054688 C 277.054688 241.054688 277.167969 240.976562 277.167969 240.835938 L 277.167969 225.289062 C 277.167969 225.1875 277.074219 225.066406 276.957031 225.066406 L 273.246094 225.066406 C 273.148438 225.066406 273.035156 225.167969 273.035156 225.289062 L 273.035156 240.835938 C 273.035156 240.976562 273.128906 241.054688 273.246094 241.054688 Z M 222.339844 225.289062 C 222.339844 225.1875 222.417969 225.066406 222.550781 225.066406 L 226.242188 225.066406 C 226.339844 225.066406 226.457031 225.167969 226.457031 225.289062 L 226.457031 240.835938 C 226.457031 240.9375 226.378906 241.054688 226.242188 241.054688 L 222.550781 241.054688 C 222.457031 241.054688 222.339844 240.976562 222.339844 240.835938 L 222.339844 239.652344 C 221.042969 240.894531 219.535156 240.914062 218.183594 240.9375 L 217.953125 240.9375 C 215.75 240.9375 213.875 240.214844 212.539062 238.851562 C 211.128906 237.429688 210.394531 235.304688 210.394531 232.78125 C 210.394531 227.890625 213.390625 224.765625 218.046875 224.765625 L 218.125 224.765625 C 219.574219 224.765625 221.101562 224.925781 222.339844 225.949219 Z M 221.546875 235.644531 C 222.164062 234.886719 222.457031 233.882812 222.457031 232.78125 C 222.457031 230.777344 221.296875 228.695312 218.453125 228.695312 C 216.117188 228.695312 214.550781 230.375 214.550781 232.839844 C 214.550781 235.304688 216.117188 237.007812 218.453125 237.007812 C 219.652344 236.988281 220.871094 236.46875 221.546875 235.625 M 270.792969 241.035156 C 270.886719 241.035156 271.003906 240.957031 271.003906 240.816406 L 271.003906 237.328125 C 271.003906 237.230469 270.925781 237.109375 270.792969 237.109375 L 268.957031 237.109375 C 267.890625 237.046875 267.390625 236.507812 267.390625 235.324219 L 267.390625 229.394531 L 270.753906 229.394531 C 270.847656 229.394531 270.964844 229.292969 270.964844 229.175781 L 270.964844 225.308594 C 270.964844 225.207031 270.886719 225.085938 270.753906 225.085938 L 267.410156 225.085938 L 267.410156 221.703125 C 267.410156 221.601562 267.3125 221.480469 267.195312 221.480469 L 263.484375 221.480469 C 263.390625 221.480469 263.273438 221.582031 263.273438 221.703125 L 263.273438 235.324219 C 263.273438 238.953125 265.226562 241.035156 268.703125 241.035156 Z M 290.003906 236.066406 C 290.003906 236.066406 289.789062 235.988281 289.710938 236.046875 C 288.996094 236.648438 288.070312 237.007812 287.199219 237.007812 C 284.9375 237.007812 283.394531 235.324219 283.394531 232.921875 C 283.394531 230.515625 284.957031 228.835938 287.199219 228.835938 C 288.070312 228.835938 288.996094 229.195312 289.710938 229.796875 C 289.789062 229.875 289.925781 229.855469 290.003906 229.777344 L 292.378906 227.171875 C 292.378906 227.171875 292.457031 226.949219 292.378906 226.871094 C 290.832031 225.367188 289.289062 224.726562 287.121094 224.726562 C 282.292969 224.726562 279.199219 227.933594 279.199219 232.921875 C 279.199219 237.910156 282.292969 241.117188 287.121094 241.117188 C 289.25 241.117188 290.832031 240.476562 292.378906 238.972656 C 292.457031 238.890625 292.457031 238.75 292.378906 238.671875 L 290.003906 236.105469 Z M 211.363281 221.199219 L 211.363281 217.472656 C 211.363281 217.332031 211.265625 217.191406 211.089844 217.191406 L 197.734375 217.191406 C 197.601562 217.191406 197.464844 217.292969 197.464844 217.472656 L 197.464844 240.777344 C 197.464844 240.914062 197.601562 241.054688 197.734375 241.054688 L 201.332031 241.054688 C 201.464844 241.054688 201.601562 240.957031 201.601562 240.777344 L 201.601562 231.277344 C 201.601562 231.136719 201.699219 230.996094 201.871094 230.996094 L 208.597656 230.996094 C 208.734375 230.996094 208.867188 230.898438 208.867188 230.71875 L 208.867188 226.992188 C 208.867188 226.851562 208.773438 226.710938 208.597656 226.710938 L 201.871094 226.710938 C 201.738281 226.710938 201.601562 226.609375 201.601562 226.429688 L 201.601562 221.761719 C 201.601562 221.621094 201.699219 221.480469 201.871094 221.480469 L 211.089844 221.480469 C 211.246094 221.480469 211.363281 221.382812 211.363281 221.199219 Z M 257.050781 225.269531 C 257.050781 225.167969 257.128906 225.046875 257.261719 225.046875 L 260.953125 225.046875 C 261.050781 225.046875 261.167969 225.148438 261.167969 225.269531 L 261.167969 240.816406 C 261.167969 240.914062 261.089844 241.035156 260.953125 241.035156 L 257.261719 241.035156 C 257.167969 241.035156 257.050781 240.957031 257.050781 240.816406 L 257.050781 239.632812 C 255.753906 240.875 254.246094 240.894531 252.894531 240.914062 L 252.664062 240.914062 C 250.460938 240.914062 248.585938 240.195312 247.25 238.832031 C 245.839844 237.410156 245.105469 235.285156 245.105469 232.761719 C 245.105469 227.871094 248.101562 224.746094 252.757812 224.746094 L 252.835938 224.746094 C 254.285156 224.746094 255.8125 224.90625 257.050781 225.929688 Z M 256.257812 235.625 C 256.875 234.863281 257.167969 233.863281 257.167969 232.761719 C 257.167969 230.757812 255.96875 228.675781 253.164062 228.675781 C 250.828125 228.675781 249.261719 230.355469 249.261719 232.820312 C 249.261719 235.285156 250.828125 236.988281 253.164062 236.988281 C 254.324219 236.96875 255.582031 236.449219 256.257812 235.605469 M 293.539062 238.210938 C 293.539062 238.210938 293.480469 238.429688 293.558594 238.492188 C 295.761719 240.777344 298.140625 241.074219 300.246094 241.074219 C 303.164062 241.074219 305.367188 239.914062 306.257812 237.890625 C 306.527344 237.289062 306.679688 236.609375 306.679688 235.90625 C 306.679688 231.820312 303.28125 231.078125 300.320312 230.859375 C 297.964844 230.699219 297.964844 229.835938 297.964844 229.574219 C 297.964844 228.535156 299.550781 228.414062 300.246094 228.414062 C 301.582031 228.414062 302.546875 228.734375 303.394531 229.476562 C 303.472656 229.554688 303.605469 229.554688 303.683594 229.457031 L 305.773438 226.929688 C 305.773438 226.929688 305.851562 226.710938 305.753906 226.628906 C 304.207031 225.308594 302.605469 224.765625 300.1875 224.765625 C 298.640625 224.765625 297.171875 225.148438 296.050781 225.828125 C 294.621094 226.710938 293.886719 228.03125 293.886719 229.675781 C 293.886719 232.539062 296.089844 234.265625 300.070312 234.5625 C 302.332031 234.703125 302.625 235.386719 302.625 235.945312 C 302.625 236.808594 301.539062 237.230469 300.457031 237.230469 L 300.363281 237.230469 C 298.605469 237.210938 296.941406 236.546875 295.839844 235.445312 C 295.761719 235.367188 295.609375 235.367188 295.53125 235.464844 L 293.597656 238.210938 Z M 237.007812 224.867188 C 240.796875 224.867188 243.347656 227.914062 243.347656 232.421875 L 243.347656 240.796875 C 243.347656 240.894531 243.25 241.015625 243.136719 241.015625 L 239.425781 241.015625 C 239.328125 241.015625 239.210938 240.9375 239.210938 240.796875 L 239.210938 232.441406 C 239.210938 230.675781 238.378906 228.8125 236.082031 228.8125 L 236.003906 228.8125 C 234.226562 228.835938 232.738281 230.457031 232.738281 232.339844 L 232.738281 240.796875 C 232.738281 240.894531 232.640625 241.015625 232.523438 241.015625 L 228.832031 241.015625 C 228.738281 241.015625 228.621094 240.9375 228.621094 240.796875 L 228.621094 225.269531 C 228.621094 225.167969 228.71875 225.046875 228.832031 225.046875 L 232.390625 225.046875 C 232.484375 225.046875 232.601562 225.128906 232.601562 225.269531 L 232.601562 226.648438 C 234.011719 225.40625 235.386719 224.867188 237.007812 224.867188 Z M 237.007812 224.867188 " fill-opacity="1" fill-rule="nonzero"/><path fill="#15151e" d="M 180.011719 230.496094 C 180.011719 230.496094 180.167969 230.496094 180.226562 230.4375 L 184.921875 222.941406 C 184.921875 222.941406 184.921875 222.722656 184.824219 222.703125 C 178.097656 220.277344 171.777344 224.925781 162.171875 225.167969 C 161.941406 225.167969 161.671875 225.46875 161.863281 225.808594 L 172.261719 242.4375 C 172.417969 242.71875 172.765625 242.539062 172.746094 242.277344 L 170.523438 231.757812 C 170.523438 231.757812 170.542969 231.597656 170.65625 231.539062 C 171.390625 231.238281 177.285156 229.175781 180.070312 230.515625 M 191.300781 212.746094 L 187.453125 218.957031 C 187.375 219.097656 187.222656 219.15625 187.085938 219.097656 C 178.214844 214.449219 167.953125 222.960938 158.90625 220.9375 C 158.828125 220.917969 158.753906 220.878906 158.695312 220.800781 C 158.695312 220.800781 154.328125 213.828125 152.859375 211.484375 C 152.664062 211.183594 152.917969 210.761719 153.28125 210.839844 C 154.074219 211.042969 157.476562 211.804688 160.125 212.003906 C 173.847656 212.765625 181.308594 204.230469 191.242188 212.324219 C 191.335938 212.402344 191.375 212.605469 191.300781 212.746094 Z M 191.300781 212.746094 " fill-opacity="1" fill-rule="nonzero"/><path fill="#15151e" d="M 331.59375 240.472656 L 317 240.472656 L 317 219.976562 L 331.515625 219.976562 L 331.515625 223.164062 L 320.167969 223.164062 L 320.167969 228.714844 L 331.070312 228.714844 L 331.070312 231.738281 L 320.167969 231.738281 L 320.167969 237.269531 L 331.59375 237.269531 Z M 331.59375 240.472656 " fill-opacity="1" fill-rule="nonzero"/><path fill="#15151e" d="M 343.535156 226.050781 L 347.050781 226.050781 L 347.050781 226.128906 L 342.355469 233.140625 L 347.363281 240.394531 L 347.363281 240.476562 L 343.84375 240.476562 L 340.445312 235.226562 L 337.039062 240.476562 L 333.542969 240.476562 L 333.542969 240.394531 L 338.507812 233.140625 L 333.832031 226.128906 L 333.832031 226.050781 L 337.332031 226.050781 L 340.445312 231.199219 Z M 343.535156 226.050781 " fill-opacity="1" fill-rule="nonzero"/><g clip-path="url(#85ecf48a5c)"><path fill="#15151e" d="M 357.203125 237.929688 C 357.839844 237.929688 358.421875 237.828125 358.980469 237.570312 C 359.503906 237.347656 359.988281 237.027344 360.390625 236.609375 C 360.796875 236.1875 361.089844 235.707031 361.320312 235.144531 C 361.53125 234.5625 361.628906 233.960938 361.628906 233.28125 C 361.628906 231.898438 361.222656 230.816406 360.429688 229.957031 C 359.636719 229.09375 358.574219 228.695312 357.222656 228.695312 C 356.566406 228.695312 355.949219 228.792969 355.386719 229.054688 C 354.867188 229.292969 354.398438 229.59375 354.015625 230.035156 C 353.648438 230.457031 353.355469 230.9375 353.144531 231.5 C 352.929688 232.039062 352.835938 232.660156 352.835938 233.28125 C 352.835938 233.902344 352.929688 234.523438 353.144531 235.105469 C 353.355469 235.6875 353.648438 236.167969 354.054688 236.585938 C 354.457031 237.007812 354.902344 237.328125 355.425781 237.570312 C 355.984375 237.808594 356.566406 237.929688 357.203125 237.929688 Z M 349.6875 247.1875 L 349.6875 226.046875 L 352.410156 226.046875 L 352.5625 228.394531 C 353.125 227.511719 353.839844 226.851562 354.710938 226.410156 C 355.582031 225.96875 356.507812 225.75 357.472656 225.75 C 358.5 225.75 359.464844 225.949219 360.335938 226.328125 C 361.203125 226.710938 361.957031 227.230469 362.554688 227.890625 C 363.175781 228.554688 363.675781 229.355469 363.988281 230.277344 C 364.332031 231.21875 364.488281 232.199219 364.488281 233.261719 C 364.488281 234.324219 364.332031 235.40625 363.988281 236.308594 C 363.675781 237.25 363.195312 238.03125 362.574219 238.691406 C 361.957031 239.371094 361.222656 239.875 360.355469 240.253906 C 359.484375 240.613281 358.5 240.796875 357.433594 240.796875 C 357.007812 240.796875 356.566406 240.734375 356.082031 240.695312 C 355.636719 240.613281 355.175781 240.472656 354.730469 240.273438 C 354.285156 240.074219 353.878906 239.832031 353.492188 239.511719 C 353.085938 239.210938 352.777344 238.832031 352.507812 238.390625 L 352.507812 247.144531 L 349.667969 247.144531 Z M 349.6875 247.1875 " fill-opacity="1" fill-rule="nonzero"/></g><path fill="#15151e" d="M 378.304688 231.898438 C 378.210938 230.71875 377.804688 229.875 377.070312 229.292969 C 376.335938 228.714844 375.371094 228.433594 374.1875 228.433594 C 373.109375 228.433594 372.179688 228.734375 371.386719 229.292969 C 370.59375 229.875 370.089844 230.757812 369.878906 231.898438 L 378.324219 231.898438 Z M 369.800781 234.425781 C 369.9375 235.527344 370.421875 236.425781 371.214844 237.070312 C 372.007812 237.730469 373.066406 238.050781 374.363281 238.050781 C 375.078125 238.050781 375.8125 237.910156 376.585938 237.667969 C 377.359375 237.390625 377.957031 237.007812 378.382812 236.507812 L 380.257812 238.410156 C 379.910156 238.832031 379.484375 239.171875 379.023438 239.472656 C 378.539062 239.773438 378.074219 240.054688 377.53125 240.234375 C 376.992188 240.414062 376.472656 240.59375 375.910156 240.695312 C 375.347656 240.773438 374.789062 240.835938 374.265625 240.835938 C 373.125 240.835938 372.0625 240.636719 371.171875 240.292969 C 370.246094 239.933594 369.472656 239.414062 368.816406 238.75 C 368.160156 238.089844 367.65625 237.289062 367.308594 236.328125 C 366.941406 235.386719 366.785156 234.324219 366.785156 233.160156 C 366.785156 232 366.980469 231.039062 367.308594 230.136719 C 367.65625 229.195312 368.160156 228.414062 368.796875 227.75 C 369.433594 227.089844 370.207031 226.570312 371.097656 226.210938 C 372.007812 225.828125 372.972656 225.667969 374.074219 225.667969 C 375.175781 225.667969 376.21875 225.867188 377.144531 226.210938 C 378.054688 226.570312 378.847656 227.109375 379.445312 227.832031 C 380.082031 228.554688 380.527344 229.453125 380.816406 230.558594 C 381.105469 231.660156 381.183594 232.921875 381.050781 234.402344 L 369.78125 234.402344 Z M 369.800781 234.425781 " fill-opacity="1" fill-rule="nonzero"/><path fill="#15151e" d="M 386.789062 226.050781 L 386.984375 227.953125 C 387.484375 227.050781 388.121094 226.449219 388.839844 226.128906 C 389.574219 225.847656 390.324219 225.6875 391.0625 225.6875 C 391.757812 225.6875 392.394531 225.789062 392.996094 226.007812 C 393.613281 226.230469 394.113281 226.53125 394.503906 226.890625 L 393.167969 229.535156 C 392.800781 229.234375 392.453125 229.015625 392.085938 228.875 C 391.71875 228.734375 391.253906 228.652344 390.714844 228.652344 C 390.210938 228.652344 389.726562 228.734375 389.28125 228.894531 C 388.839844 229.054688 388.433594 229.316406 388.085938 229.636719 C 387.738281 229.957031 387.464844 230.375 387.253906 230.878906 C 387.039062 231.378906 386.945312 231.941406 386.945312 232.601562 L 386.945312 240.394531 L 384.027344 240.394531 L 384.027344 226.027344 L 386.789062 226.027344 Z M 386.789062 226.050781 " fill-opacity="1" fill-rule="nonzero"/><path fill="#15151e" d="M 399.390625 240.476562 L 396.472656 240.476562 L 396.472656 225.988281 L 399.390625 225.988281 Z M 396.125 221.800781 C 396.125 221.160156 396.316406 220.699219 396.683594 220.398438 C 397.050781 220.097656 397.476562 219.9375 397.921875 219.9375 C 398.367188 219.9375 398.789062 220.097656 399.15625 220.398438 C 399.523438 220.699219 399.71875 221.160156 399.71875 221.800781 C 399.71875 222.441406 399.523438 222.902344 399.15625 223.203125 C 398.789062 223.503906 398.367188 223.664062 397.921875 223.664062 C 397.476562 223.664062 397.050781 223.503906 396.683594 223.203125 C 396.316406 222.902344 396.125 222.441406 396.125 221.800781 Z M 396.125 221.800781 " fill-opacity="1" fill-rule="nonzero"/><path fill="#15151e" d="M 414.003906 231.898438 C 413.90625 230.71875 413.5 229.875 412.765625 229.292969 C 412.03125 228.714844 411.066406 228.433594 409.886719 228.433594 C 408.804688 228.433594 407.875 228.734375 407.085938 229.292969 C 406.292969 229.875 405.789062 230.757812 405.578125 231.898438 L 414.023438 231.898438 Z M 405.519531 234.425781 C 405.65625 235.527344 406.140625 236.425781 406.929688 237.070312 C 407.722656 237.730469 408.785156 238.050781 410.082031 238.050781 C 410.792969 238.050781 411.53125 237.910156 412.304688 237.667969 C 413.078125 237.390625 413.675781 237.007812 414.101562 236.507812 L 415.972656 238.410156 C 415.628906 238.832031 415.203125 239.171875 414.738281 239.472656 C 414.257812 239.773438 413.789062 240.054688 413.25 240.234375 C 412.710938 240.414062 412.1875 240.59375 411.628906 240.695312 C 411.066406 240.773438 410.503906 240.835938 409.984375 240.835938 C 408.84375 240.835938 407.820312 240.636719 406.890625 240.292969 C 405.964844 239.933594 405.191406 239.414062 404.535156 238.75 C 403.878906 238.089844 403.375 237.289062 403.027344 236.328125 C 402.675781 235.386719 402.503906 234.324219 402.503906 233.160156 C 402.503906 232 402.699219 231.039062 403.027344 230.136719 C 403.375 229.195312 403.878906 228.414062 404.515625 227.75 C 405.152344 227.089844 405.925781 226.570312 406.816406 226.210938 C 407.722656 225.828125 408.691406 225.667969 409.792969 225.667969 C 410.894531 225.667969 411.9375 225.867188 412.867188 226.210938 C 413.773438 226.570312 414.566406 227.109375 415.164062 227.832031 C 415.800781 228.554688 416.246094 229.453125 416.535156 230.558594 C 416.828125 231.660156 416.902344 232.921875 416.769531 234.402344 L 405.5 234.402344 Z M 405.519531 234.425781 " fill-opacity="1" fill-rule="nonzero"/><path fill="#15151e" d="M 430.335938 240.476562 L 430.335938 232.761719 C 430.335938 231.519531 430.027344 230.515625 429.347656 229.714844 C 428.691406 228.953125 427.765625 228.535156 426.566406 228.535156 C 425.984375 228.535156 425.445312 228.632812 424.984375 228.894531 C 424.5 229.113281 424.074219 229.433594 423.765625 229.855469 C 423.417969 230.277344 423.144531 230.738281 422.972656 231.257812 C 422.777344 231.800781 422.683594 232.359375 422.683594 232.941406 L 422.683594 240.496094 L 419.765625 240.496094 L 419.765625 226.050781 L 422.410156 226.050781 L 422.566406 228.171875 C 423.902344 226.570312 425.445312 225.808594 427.265625 225.808594 C 428.113281 225.808594 428.90625 225.949219 429.621094 226.25 C 430.335938 226.550781 430.972656 226.992188 431.496094 227.59375 C 432.019531 228.171875 432.445312 228.914062 432.769531 229.753906 C 433.078125 230.636719 433.214844 231.617188 433.214844 232.742188 L 433.214844 240.496094 L 430.335938 240.496094 Z M 430.335938 240.476562 " fill-opacity="1" fill-rule="nonzero"/><path fill="#15151e" d="M 448.773438 238.632812 C 447.980469 239.453125 447.152344 240.035156 446.300781 240.355469 C 445.449219 240.675781 444.503906 240.875 443.5 240.875 C 442.492188 240.875 441.566406 240.714844 440.660156 240.375 C 439.75 240.054688 438.996094 239.574219 438.320312 238.953125 C 437.644531 238.332031 437.121094 237.53125 436.734375 236.589844 C 436.328125 235.644531 436.152344 234.566406 436.152344 233.28125 C 436.152344 232 436.347656 230.9375 436.734375 229.976562 C 437.140625 229.035156 437.644531 228.253906 438.320312 227.613281 C 438.976562 226.972656 439.769531 226.488281 440.660156 226.191406 C 441.527344 225.867188 442.492188 225.6875 443.519531 225.6875 C 444.464844 225.6875 445.375 225.847656 446.207031 226.191406 C 447.035156 226.53125 447.828125 227.070312 448.5625 227.832031 L 446.726562 229.777344 C 446.28125 229.355469 445.78125 229.054688 445.21875 228.835938 C 444.660156 228.632812 444.097656 228.535156 443.578125 228.535156 C 442.957031 228.535156 442.378906 228.632812 441.816406 228.855469 C 441.257812 229.074219 440.792969 229.394531 440.386719 229.816406 C 439.984375 230.238281 439.671875 230.71875 439.4375 231.296875 C 439.226562 231.878906 439.09375 232.539062 439.09375 233.242188 C 439.09375 234.003906 439.191406 234.664062 439.4375 235.246094 C 439.671875 235.828125 440 236.308594 440.386719 236.707031 C 440.792969 237.128906 441.257812 237.390625 441.796875 237.589844 C 442.339844 237.789062 442.917969 237.890625 443.5 237.890625 C 444.078125 237.890625 444.695312 237.789062 445.277344 237.589844 C 445.855469 237.390625 446.359375 237.046875 446.820312 236.546875 L 448.773438 238.570312 Z M 448.773438 238.632812 " fill-opacity="1" fill-rule="nonzero"/><path fill="#15151e" d="M 461.703125 231.898438 C 461.605469 230.71875 461.199219 229.875 460.464844 229.292969 C 459.730469 228.714844 458.765625 228.433594 457.585938 228.433594 C 456.503906 228.433594 455.574219 228.734375 454.804688 229.292969 C 454.011719 229.875 453.507812 230.757812 453.257812 231.898438 Z M 453.199219 234.425781 C 453.335938 235.527344 453.78125 236.425781 454.609375 237.070312 C 455.402344 237.730469 456.464844 238.050781 457.757812 238.050781 C 458.476562 238.050781 459.210938 237.910156 459.984375 237.667969 C 460.753906 237.390625 461.355469 237.007812 461.777344 236.507812 L 463.65625 238.410156 C 463.304688 238.832031 462.878906 239.171875 462.417969 239.472656 C 461.933594 239.773438 461.472656 240.054688 460.929688 240.234375 C 460.429688 240.433594 459.867188 240.59375 459.304688 240.695312 C 458.746094 240.773438 458.183594 240.835938 457.664062 240.835938 C 456.523438 240.835938 455.496094 240.636719 454.570312 240.292969 C 453.644531 239.933594 452.871094 239.414062 452.210938 238.75 C 451.554688 238.089844 451.050781 237.289062 450.707031 236.328125 C 450.339844 235.386719 450.183594 234.324219 450.183594 233.160156 C 450.183594 232 450.375 231.039062 450.707031 230.136719 C 451.050781 229.195312 451.554688 228.414062 452.210938 227.75 C 452.851562 227.089844 453.625 226.570312 454.515625 226.210938 C 455.421875 225.828125 456.386719 225.667969 457.488281 225.667969 C 458.59375 225.667969 459.636719 225.867188 460.5625 226.210938 C 461.472656 226.570312 462.265625 227.109375 462.863281 227.832031 C 463.5 228.554688 463.945312 229.453125 464.234375 230.558594 C 464.523438 231.660156 464.601562 232.921875 464.464844 234.402344 L 453.179688 234.402344 Z M 453.199219 234.425781 " fill-opacity="1" fill-rule="nonzero"/><path fill="#15151e" d="M 140.644531 223.964844 L 136.449219 233.722656 L 144.800781 233.722656 Z M 145.980469 236.6875 L 135.273438 236.6875 L 133.417969 240.996094 L 130.074219 240.996094 L 138.945312 220.5 L 142.382812 220.5 L 151.234375 240.996094 L 147.871094 240.996094 L 145.960938 236.6875 Z M 145.980469 236.6875 " fill-opacity="1" fill-rule="nonzero"/><path fill="#15151e" d="M 327.480469 160.53125 C 314.609375 156.605469 308.558594 149.570312 308.558594 139.953125 C 308.558594 127.832031 316.984375 120.339844 331.925781 120.339844 L 367.621094 120.339844 L 367.621094 136.1875 L 331.847656 136.1875 C 327.847656 136.1875 326.476562 137.910156 326.476562 139.734375 C 326.476562 142.039062 327.960938 143.382812 331.382812 144.421875 L 348.351562 149.511719 C 362.832031 153.820312 369.960938 159.410156 369.960938 170.871094 C 369.960938 182.332031 361.417969 192.410156 343.253906 192.410156 L 310.414062 192.410156 L 310.414062 176.558594 L 346.015625 176.558594 C 350.730469 176.558594 352.316406 174.355469 352.316406 171.75 C 352.316406 168.667969 350.558594 167.523438 344.160156 165.601562 L 327.519531 160.550781 Z M 327.480469 160.53125 " fill-opacity="1" fill-rule="nonzero"/><path fill="#15151e" d="M 373.667969 134.746094 L 382.65625 134.746094 L 382.65625 123.003906 L 398.871094 123.003906 L 398.871094 134.746094 L 417.871094 134.746094 L 417.871094 148.671875 L 398.871094 148.671875 L 398.871094 172.03125 C 398.871094 176.921875 400.726562 178.464844 405.171875 178.464844 L 417.871094 178.464844 L 417.871094 192.390625 L 403.144531 192.390625 C 387.742188 192.390625 381.730469 185.859375 381.730469 171.992188 L 381.730469 148.632812 L 373.667969 148.632812 L 373.667969 134.726562 Z M 373.667969 134.746094 " fill-opacity="1" fill-rule="nonzero"/><path fill="#15151e" d="M 455.269531 147.527344 L 449.140625 147.527344 C 442.28125 147.527344 439.980469 151.074219 439.980469 158.570312 L 439.980469 168.464844 C 439.980469 176.039062 442.28125 179.625 449.140625 179.625 L 455.269531 179.625 C 462.128906 179.625 464.351562 176.078125 464.351562 168.464844 L 464.351562 158.570312 C 464.351562 151.09375 462.128906 147.527344 455.269531 147.527344 Z M 482.441406 167.0625 C 482.441406 183.210938 472.796875 193.410156 455.460938 193.410156 L 448.96875 193.410156 C 431.628906 193.410156 421.890625 183.210938 421.890625 167.0625 L 421.890625 160.132812 C 421.890625 143.984375 431.613281 133.785156 448.96875 133.785156 L 455.460938 133.785156 C 472.796875 133.785156 482.441406 143.984375 482.441406 160.132812 Z M 482.441406 167.0625 " fill-opacity="1" fill-rule="nonzero"/><path fill="#15151e" d="M 511.085938 134.746094 L 527.414062 134.746094 L 527.414062 148.671875 L 515.085938 148.671875 C 508.785156 148.671875 507.101562 150.671875 507.101562 156.363281 L 507.101562 192.40625 L 489.476562 192.40625 L 489.476562 156.164062 C 489.476562 145.222656 495.605469 134.726562 511.085938 134.726562 " fill-opacity="1" fill-rule="nonzero"/><path fill="#15151e" d="M 554.398438 146.867188 C 548.464844 146.867188 546.414062 149.371094 546.414062 155.605469 L 546.414062 156.867188 L 569.492188 156.867188 L 569.492188 155.605469 C 569.492188 149.371094 567.269531 146.867188 561.625 146.867188 Z M 546.414062 168.988281 L 546.414062 169.367188 C 546.414062 176.679688 549.101562 178.484375 556.699219 178.484375 L 584.894531 178.484375 L 584.894531 192.410156 L 557.722656 192.410156 C 535.941406 192.410156 528.519531 181.949219 528.519531 166.441406 L 528.519531 159.128906 C 528.519531 143.863281 536.308594 133.945312 555.867188 133.945312 L 559.578125 133.945312 C 580.546875 133.945312 586.191406 144.726562 586.191406 160.574219 L 586.191406 168.925781 L 546.414062 168.925781 Z M 546.414062 168.988281 " fill-opacity="1" fill-rule="nonzero"/><g clip-path="url(#e04b6bed6e)"><path fill="#e10600" d="M 78.953125 161.152344 L 47.953125 192.328125 L 8.429688 192.328125 L 57.617188 141.71875 C 75.898438 122.964844 84.714844 119.878906 115.886719 119.878906 L 239.039062 119.878906 L 212.308594 147.007812 L 119.425781 147.007812 C 96.136719 147.007812 91.167969 148.871094 78.972656 161.152344 Z M 208.308594 151.335938 L 119.964844 151.335938 C 96.503906 151.335938 92.832031 153.199219 82.199219 164.21875 L 55.105469 192.308594 L 91.765625 192.308594 L 100.484375 183.273438 C 106.242188 177.300781 108.8125 176.722656 120.429688 176.722656 L 183.800781 176.722656 L 208.308594 151.316406 Z M 217.875 192.308594 L 287.933594 119.859375 L 244.410156 119.859375 L 174.523438 192.308594 Z M 217.875 192.308594 " fill-opacity="1" fill-rule="nonzero"/></g><path fill="#e10600" d="M 247.292969 192.328125 C 245.089844 192.328125 243.253906 191.566406 241.804688 190.046875 C 240.335938 188.523438 239.621094 186.640625 239.621094 184.394531 C 239.621094 182.152344 240.355469 180.289062 241.804688 178.765625 C 243.253906 177.242188 245.089844 176.480469 247.292969 176.480469 C 249.496094 176.480469 251.3125 177.242188 252.765625 178.765625 C 254.214844 180.289062 254.929688 182.171875 254.929688 184.414062 C 254.929688 186.660156 254.214844 188.523438 252.78125 190.046875 C 251.351562 191.566406 249.535156 192.328125 247.332031 192.328125 Z M 247.253906 177.722656 C 245.4375 177.722656 243.929688 178.363281 242.714844 179.667969 C 241.496094 180.96875 240.878906 182.53125 240.878906 184.375 C 240.878906 186.21875 241.496094 187.800781 242.714844 189.082031 C 243.929688 190.386719 245.4375 191.027344 247.253906 191.027344 C 249.070312 191.027344 250.578125 190.386719 251.796875 189.101562 C 253.015625 187.820312 253.632812 186.238281 253.632812 184.394531 C 253.632812 182.550781 253.035156 180.96875 251.796875 179.667969 C 250.578125 178.363281 249.070312 177.722656 247.253906 177.722656 Z M 245.765625 185.695312 L 245.765625 188.800781 L 244.085938 188.800781 L 244.085938 180.007812 L 247.273438 180.007812 C 248.375 180.007812 249.207031 180.226562 249.75 180.648438 C 250.308594 181.070312 250.578125 181.710938 250.578125 182.570312 C 250.578125 183.433594 250.464844 184.054688 250.25 184.476562 C 250.019531 184.894531 249.652344 185.214844 249.109375 185.476562 L 250.714844 188.824219 L 248.9375 188.824219 L 247.488281 185.71875 L 245.765625 185.71875 Z M 245.730469 181.371094 L 245.730469 184.335938 L 247.449219 184.335938 C 247.96875 184.335938 248.355469 184.214844 248.589844 183.992188 C 248.820312 183.753906 248.9375 183.394531 248.9375 182.871094 C 248.9375 181.890625 248.335938 181.390625 247.140625 181.390625 L 245.746094 181.390625 Z M 245.730469 181.371094 " fill-opacity="1" fill-rule="nonzero"/></svg>